<svg xmlns="http://www.w3.org/2000/svg" height="511pt" version="1.1" viewBox="1 -75 511.99997 511" width="511pt">
<g id="surface1">
<path d="M 182.144531 269.566406 L 175.46875 222.996094 L 123.804688 222.996094 L 123.804688 293.378906 L 168.730469 287.3125 C 177.355469 286.148438 183.375 278.179688 182.144531 269.566406 Z M 182.144531 269.566406 " style=" stroke:none;fill-rule:nonzero;fill:rgb(100%,85.490196%,26.666667%);fill-opacity:1;" />
<path d="M 153.046875 199.289062 L 117.332031 348.449219 C 115.484375 356.1875 108.574219 361.636719 100.613281 361.636719 L 38.789062 361.636719 C 27.683594 361.636719 19.484375 351.246094 22.066406 340.445312 L 55.875 199.289062 Z M 153.046875 199.289062 " style=" stroke:none;fill-rule:nonzero;fill:rgb(100%,53.333333%,34.901961%);fill-opacity:1;" />
<path d="M 153.046875 199.289062 L 117.332031 348.449219 C 115.484375 356.1875 108.574219 361.636719 100.613281 361.636719 L 68.714844 361.636719 L 107.585938 199.289062 Z M 153.046875 199.289062 " style=" stroke:none;fill-rule:nonzero;fill:rgb(100%,39.215686%,14.901961%);fill-opacity:1;" />
<path d="M 246.691406 39.195312 L 47.441406 39.195312 C 21.242188 39.195312 0 60.4375 0 86.636719 L 0 185.3125 C 0 211.511719 21.238281 232.753906 47.441406 232.753906 L 246.691406 232.753906 L 378.484375 270.824219 C 388.503906 273.71875 398.5 266.203125 398.5 255.773438 L 398.5 16.175781 C 398.5 5.75 388.503906 -1.769531 378.484375 1.125 Z M 246.691406 39.195312 " style=" stroke:none;fill-rule:nonzero;fill:rgb(49.411765%,84.705882%,96.470588%);fill-opacity:1;" />
<path d="M 398.503906 138.199219 L 398.503906 255.777344 C 398.503906 266.199219 388.5 273.722656 378.488281 270.820312 L 246.691406 232.75 L 47.445312 232.75 C 21.242188 232.75 0 211.519531 0 185.316406 L 0 138.199219 Z M 398.503906 138.199219 " style=" stroke:none;fill-rule:nonzero;fill:rgb(18.431373%,75.294118%,94.117647%);fill-opacity:1;" />
<path d="M 378.484375 1.125 L 246.691406 39.195312 L 246.691406 232.753906 L 378.484375 270.824219 C 388.503906 273.71875 398.5 266.199219 398.5 255.773438 L 398.5 16.175781 C 398.5 5.75 388.503906 -1.769531 378.484375 1.125 Z M 378.484375 1.125 " style=" stroke:none;fill-rule:nonzero;fill:rgb(100%,53.333333%,34.901961%);fill-opacity:1;" />
<path d="M 398.503906 138.199219 L 398.503906 255.777344 C 398.503906 266.199219 388.5 273.722656 378.488281 270.820312 L 246.691406 232.75 L 246.691406 138.199219 Z M 398.503906 138.199219 " style=" stroke:none;fill-rule:nonzero;fill:rgb(100%,39.215686%,14.901961%);fill-opacity:1;" />
<path d="M 107.09375 138.199219 C 105.941406 155 91.957031 168.269531 74.871094 168.269531 C 57.078125 168.269531 42.574219 153.851562 42.574219 135.972656 C 42.574219 118.140625 57.039062 103.6875 74.871094 103.6875 C 93.601562 103.6875 108.386719 119.574219 107.09375 138.199219 Z M 107.09375 138.199219 " style=" stroke:none;fill-rule:nonzero;fill:rgb(5.882353%,66.27451%,86.666667%);fill-opacity:1;" />
<path d="M 159.316406 112.34375 L 159.316406 155.683594 C 159.316406 164.339844 152.304688 171.351562 143.648438 171.351562 C 134.992188 171.351562 127.980469 164.339844 127.980469 155.683594 L 127.980469 112.34375 C 127.980469 103.6875 134.992188 96.675781 143.648438 96.675781 C 152.304688 96.675781 159.316406 103.6875 159.316406 112.34375 Z M 159.316406 112.34375 " style=" stroke:none;fill-rule:nonzero;fill:rgb(5.882353%,66.27451%,86.666667%);fill-opacity:1;" />
<path d="M 208.402344 112.34375 L 208.402344 155.683594 C 208.402344 164.339844 201.390625 171.351562 192.734375 171.351562 C 184.089844 171.351562 177.078125 164.339844 177.078125 155.683594 L 177.078125 112.34375 C 177.078125 103.6875 184.089844 96.675781 192.734375 96.675781 C 201.390625 96.675781 208.402344 103.6875 208.402344 112.34375 Z M 208.402344 112.34375 " style=" stroke:none;fill-rule:nonzero;fill:rgb(5.882353%,66.27451%,86.666667%);fill-opacity:1;" />
<path d="M 42.644531 138.199219 L 107.09375 138.199219 C 105.941406 155 91.957031 168.269531 74.871094 168.269531 C 57.785156 168.269531 43.800781 155 42.644531 138.199219 Z M 42.644531 138.199219 " style=" stroke:none;fill-rule:nonzero;fill:rgb(5.098039%,56.862745%,74.117647%);fill-opacity:1;" />
<path d="M 127.980469 138.199219 L 159.316406 138.199219 L 159.316406 155.683594 C 159.316406 164.339844 152.304688 171.351562 143.648438 171.351562 C 134.992188 171.351562 127.980469 164.339844 127.980469 155.683594 Z M 127.980469 138.199219 " style=" stroke:none;fill-rule:nonzero;fill:rgb(5.098039%,56.862745%,74.117647%);fill-opacity:1;" />
<path d="M 208.402344 138.199219 L 208.402344 155.683594 C 208.402344 164.339844 201.390625 171.351562 192.734375 171.351562 C 184.089844 171.351562 177.078125 164.339844 177.078125 155.683594 L 177.078125 138.199219 Z M 208.402344 138.199219 " style=" stroke:none;fill-rule:nonzero;fill:rgb(5.098039%,56.862745%,74.117647%);fill-opacity:1;" />
<path d="M 512 138.199219 C 512 146.855469 504.988281 153.867188 496.332031 153.867188 L 446.40625 153.867188 C 437.75 153.867188 430.738281 146.855469 430.738281 138.199219 C 430.738281 129.542969 437.75 122.53125 446.40625 122.53125 L 496.332031 122.53125 C 504.988281 122.527344 512 129.542969 512 138.199219 Z M 512 138.199219 " style=" stroke:none;fill-rule:nonzero;fill:rgb(74.509804%,92.156863%,98.039216%);fill-opacity:1;" />
<path d="M 435.328125 99.203125 C 429.210938 93.082031 429.210938 83.164062 435.328125 77.046875 L 476.6875 35.6875 C 482.808594 29.570312 492.726562 29.570312 498.84375 35.6875 C 504.964844 41.804688 504.964844 51.726562 498.84375 57.84375 L 457.484375 99.203125 C 451.367188 105.320312 441.449219 105.320312 435.328125 99.203125 Z M 435.328125 99.203125 " style=" stroke:none;fill-rule:nonzero;fill:rgb(74.509804%,92.156863%,98.039216%);fill-opacity:1;" />
<path d="M 498.84375 240.710938 C 492.730469 246.824219 482.808594 246.824219 476.691406 240.710938 L 435.332031 199.347656 C 429.207031 193.234375 429.207031 183.3125 435.332031 177.1875 C 441.445312 171.074219 451.367188 171.074219 457.484375 177.1875 L 498.84375 218.550781 C 504.96875 224.675781 504.96875 234.585938 498.84375 240.710938 Z M 498.84375 240.710938 " style=" stroke:none;fill-rule:nonzero;fill:rgb(74.509804%,92.156863%,98.039216%);fill-opacity:1;" />
<path d="M 498.84375 218.550781 C 504.96875 224.675781 504.96875 234.585938 498.84375 240.710938 C 492.730469 246.824219 482.808594 246.824219 476.691406 240.710938 L 435.332031 199.347656 C 429.207031 193.234375 429.207031 183.3125 435.332031 177.1875 C 441.445312 171.074219 451.367188 171.074219 457.484375 177.1875 Z M 498.84375 218.550781 " style=" stroke:none;fill-rule:nonzero;fill:rgb(49.411765%,84.705882%,96.470588%);fill-opacity:1;" />
<path d="M 512 138.199219 C 512 146.855469 504.988281 153.867188 496.332031 153.867188 L 446.40625 153.867188 C 437.75 153.867188 430.738281 146.855469 430.738281 138.199219 Z M 512 138.199219 " style=" stroke:none;fill-rule:nonzero;fill:rgb(49.411765%,84.705882%,96.470588%);fill-opacity:1;" />
</g>
</svg>