<svg height="476pt" viewBox="0 -8 476.75308 476" width="476pt" xmlns="http://www.w3.org/2000/svg"><path d="m377.992188 254.925781-94.539063-8.648437-41.402344 86.507812-14.859375-68.457031-5.527344-25.472656-26.171874-3.589844-68.371094-9.378906 81.5625-48.820313-16.679688-94.539062 71.058594 63.648437 83.410156-45.730469-37.070312 88.359376zm0 0" fill="#00efd1"/><path d="m221.664062 238.855469 5.527344 25.472656h-.007812l-46.710938 46.71875-.140625-.140625-14-46.480469 29.160157-29.160156zm0 0" fill="#00acea"/><path d="m180.472656 311.046875-24.46875 24.460937-.132812-.132812-14.007813-46.476562 24.46875-24.472657 14 46.480469zm0 0" fill="#fedb41"/><path d="m156.003906 335.507812-24.472656 24.46875-.128906-.128906-14.007813-46.480468 24.46875-24.46875 14.007813 46.476562zm0 0" fill="#00acea"/><path d="m131.53125 359.976562-24.457031 24.46875-.140625-.140624-14-46.476563 24.460937-24.460937 14.007813 46.480468zm0 0" fill="#fedb41"/><path d="m107.074219 384.445312-24.472657 24.460938-.128906-.128906-14.011718-46.480469 24.472656-24.46875 14 46.476563zm0 0" fill="#00acea"/><path d="m82.601562 408.90625-24.46875 24.46875-.128906-.128906-14.011718-46.480469 24.46875-24.46875 14.011718 46.480469zm0 0" fill="#fedb41"/><path d="m58.132812 433.375-21.46875 21.472656c-8.386718 8.390625-21.988281 8.390625-30.371093 0v-.011718c-8.390625-8.382813-8.390625-21.984376 0-30.371094l37.699219-37.699219 14.011718 46.480469zm0 0" fill="#00acea"/><g fill="#fedb41"><path d="m353.28125 372.917969c-2.644531.003906-5.121094-1.300781-6.613281-3.484375l-32.128907-46.960938c-2.496093-3.644531-1.5625-8.625 2.085938-11.117187 3.648438-2.496094 8.625-1.5625 11.121094 2.085937l32.128906 46.957032c1.675781 2.449218 1.859375 5.625.476562 8.246093-1.382812 2.625-4.105468 4.269531-7.070312 4.273438zm0 0"/><path d="m276.03125 71.988281c-4.417969 0-8-3.582031-8-8v-55.613281c0-4.417969 3.582031-8 8-8s8 3.582031 8 8v55.613281c0 4.417969-3.582031 8-8 8zm0 0"/><path d="m394.667969 175.796875c-4.042969.003906-7.449219-3.011719-7.941407-7.023437-.492187-4.011719 2.082032-7.761719 6.007813-8.738282l74.148437-18.53125c4.269532-1.023437 8.566407 1.582032 9.632813 5.839844 1.0625 4.261719-1.503906 8.582031-5.753906 9.683594l-74.148438 18.527344c-.636719.160156-1.289062.242187-1.945312.242187zm0 0"/><path d="m121.5625 150.46875c-.449219 0-.898438-.039062-1.339844-.113281l-54.988281-9.269531c-4.359375-.734376-7.296875-4.863282-6.5625-9.21875.738281-4.359376 4.863281-7.292969 9.222656-6.558594l54.988281 9.269531c4.101563.6875 6.996094 4.40625 6.648438 8.550781-.34375 4.148438-3.808594 7.335938-7.96875 7.339844zm0 0"/></g></svg>