<svg height="512pt" viewBox="0 -46 512 512" width="512pt" xmlns="http://www.w3.org/2000/svg"><path d="m400.402344 31.5v297c-28.800782-10.199219-82.703125-58.5-205.402344-58.5h-15l-30-30v-113.402344l30-36.597656h15c124.5 0 169.699219-45.902344 205.402344-58.5zm0 0" fill="#faecd8"/><path d="m150 180h250.402344v148.5c-28.800782-10.199219-82.703125-58.5-205.402344-58.5h-15l-30-30zm0 0" fill="#f4d7af"/><path d="m452 120h-15c-8.402344 0-15 6.597656-15 15v90c0 8.402344 6.597656 15 15 15h15c33 0 60-27 60-60s-27-60-60-60zm0 0" fill="#f4d7af"/><path d="m512 180c0 33-27 60-60 60h-15c-8.402344 0-15-6.597656-15-15v-45zm0 0" fill="#dabba6"/><path d="m180 270-45-30-45 30 30.292969 137.945312c1.40625 7 7.558593 12.054688 14.707031 12.054688h60c4.496094 0 8.746094-2.019531 11.601562-5.492188 2.84375-3.472656 3.984376-8.042968 3.105469-12.453124zm0 0" fill="#575f64"/><path d="m270 195c0 8.285156-6.714844 15-15 15s-15-6.714844-15-15 6.714844-15 15-15 15 6.714844 15 15zm0 0" fill="#e63950"/><path d="m452 30v300c0 16.5-13.5 30-30 30s-30-13.5-30-30v-300c0-16.5 13.5-30 30-30s30 13.5 30 30zm0 0" fill="#ff637b"/><path d="m452 180v150c0 16.5-13.5 30-30 30s-30-13.5-30-30v-150zm0 0" fill="#e63950"/><path d="m180 90v180h-135c-24.902344 0-45-20.097656-45-45v-90c0-24.902344 20.097656-45 45-45h15l15 30 15-30h30l15 30 15-30zm0 0" fill="#ff637b"/><g fill="#e63950"><path d="m0 180h180v90h-135c-24.902344 0-45-20.097656-45-45zm0 0"/><path d="m75 150c8.289062 0 15-6.710938 15-15v-45h-30v45c0 8.289062 6.710938 15 15 15zm0 0"/><path d="m135 150c8.289062 0 15-6.710938 15-15v-45h-30v45c0 8.289062 6.710938 15 15 15zm0 0"/></g></svg>