<svg height="511pt" viewBox="-68 0 511 511.99961" width="511pt" xmlns="http://www.w3.org/2000/svg"><path d="m216.835938 274.371094-28.527344 84.902344-11.144532 33.167968-40.175781 119.558594-47.371093-79.382812-85.699219 34.671874 46.300781-137.796874 33.542969-99.835938 104.546875 35.128906zm0 0" fill="#f94141"/><path d="m372.695312 467.289062-85.691406-34.671874-47.382812 79.382812-40.164063-119.558594-11.148437-33.167968-28.523438-84.902344 28.523438-9.585938 104.550781-35.128906 33.542969 99.835938zm0 0" fill="#f94141"/><path d="m326.402344 329.492188c-6.296875 3.300781-12.078125 6.902343-16.511719 11.335937-17.167969 17.167969-21.882813 54.617187-44.679687 64.066406-18.8125 7.804688-43.242188-7.804687-65.753907-12.453125l-11.148437-33.167968-11.144532 33.167968c-22.511718 4.648438-46.941406 20.257813-65.765624 12.453125-22.785157-9.449219-27.5-46.898437-44.679688-64.066406-4.421875-4.433594-10.203125-8.035156-16.5-11.335937l33.542969-99.835938 104.546875 35.125 104.550781-35.125zm0 0" fill="#e22b2b"/><path d="m360.257812 187.808594c0-25.277344 22.828126-54.925782 13.710938-76.90625-9.449219-22.789063-46.898438-27.507813-64.070312-44.679688-17.171876-17.171875-21.894532-54.625-44.679688-64.074218-21.980469-9.113282-51.628906 13.710937-76.910156 13.710937-25.277344 0-54.925782-22.824219-76.90625-13.710937-22.789063 9.449218-27.507813 46.902343-44.679688 64.074218s-54.625 21.890625-64.074218 44.679688c-9.113282 21.980468 13.710937 51.628906 13.710937 76.90625s-22.824219 54.925781-13.710937 76.910156c9.449218 22.785156 46.902343 27.503906 64.074218 44.675781s21.890625 54.628907 44.679688 64.074219c21.980468 9.117188 51.628906-13.710938 76.90625-13.710938s54.925781 22.824219 76.90625 13.710938c22.789062-9.449219 27.507812-46.902344 44.679687-64.074219s54.625-21.890625 64.074219-44.675781c9.117188-21.984375-13.710938-51.632812-13.710938-76.910156zm0 0" fill="#ff8040"/><path d="m309.890625 187.808594c0 60.183594-43.726563 110.160156-101.152344 119.871094-6.640625 1.132812-13.460937 1.71875-20.429687 1.71875-67.148438 0-121.589844-54.441407-121.589844-121.589844 0-67.152344 54.441406-121.582032 121.589844-121.582032 6.96875 0 13.789062.585938 20.429687 1.71875 57.425781 9.699219 101.152344 59.679688 101.152344 119.863282zm0 0" fill="#cacadb"/><path d="m309.890625 187.808594c0 60.183594-43.726563 110.160156-101.152344 119.871094-57.429687-9.699219-101.164062-59.679688-101.164062-119.871094 0-60.195313 43.734375-110.164063 101.164062-119.863282 57.425781 9.699219 101.152344 59.679688 101.152344 119.863282zm0 0" fill="#e4e4ef"/><path d="m199.835938 119.027344 12.808593 25.960937c1.875 3.792969 5.496094 6.425781 9.679688 7.03125l28.648437 4.164063c10.546875 1.535156 14.757813 14.492187 7.125 21.929687l-20.726562 20.207031c-3.03125 2.953126-4.414063 7.207032-3.699219 11.378907l4.890625 28.53125c1.804688 10.5-9.21875 18.511719-18.652344 13.550781l-25.621094-13.46875c-3.746093-1.96875-8.222656-1.96875-11.964843 0l-25.625 13.46875c-9.429688 4.960938-20.453125-3.050781-18.652344-13.550781l4.890625-28.53125c.71875-4.171875-.664062-8.425781-3.695312-11.378907l-20.730469-20.207031c-7.628907-7.4375-3.421875-20.394531 7.125-21.929687l28.648437-4.164063c4.1875-.605469 7.804688-3.238281 9.679688-7.03125l12.8125-25.960937c4.714844-9.554688 18.339844-9.554688 23.058594 0zm0 0" fill="#ffbf3e"/></svg>