<svg height="512pt" viewBox="-64 0 512 512.00037" width="512pt" xmlns="http://www.w3.org/2000/svg"><path d="m31.699219 479.121094c-43.011719-43.511719-41.941407-113.941406 1.320312-157.203125l89.683594-89.6875 28.449219 28.449219-89.910156 89.910156c-27.5 27.5-28.359376 72.277344-1.128907 100.042968 27.5 28.039063 72.6875 28.203126 100.394531.496094l91.871094-91.871094c7.855469-7.855468 20.59375-7.855468 28.449219 0 7.855469 7.855469 7.855469 20.59375 0 28.445313l-91.871094 91.875c-43.382812 43.382813-114.066406 43.230469-157.257812-.457031zm0 0" fill="#546370"/><path d="m61.242188 350.589844 89.910156-89.910156-28.449219-28.449219-89.683594 89.6875c-13.941406 13.941406-23.503906 30.703125-28.617187 48.476562 14.925781 7.738281 27.878906 10.863281 38.421875 11.648438 3.234375-11.535157 9.390625-22.425781 18.417969-31.453125zm0 0" fill="#3d4751"/><path d="m137.960938 178.285156-99.488282 111.007813c-13.957031 15.574219-13.308594 39.34375 1.480469 54.136719 14.792969 14.789062 38.5625 15.4375 54.136719 1.476562l111.007812-99.484375zm0 0" fill="#ffaa75"/><path d="m90.574219 231.160156c10.613281 4.992188 23.636719 12.652344 37.355469 24.292969 13.621093 11.558594 27.855468 18.792969 39.964843 23.308594l37.203125-33.339844-67.136718-67.136719zm0 0" fill="#ff8c42"/><path d="m262.328125 170.410156c-7.539063-7.535156-38.8125-15.519531-38.8125-15.519531s-1.628906-24.917969-10.542969-33.835937c-10.785156-10.78125-13.757812-27.160157-7.347656-40.996094 15.667969-33.828125 42.878906-61.042969 76.707031-76.710938 13.839844-6.40625 30.214844-3.4335935 41 7.347656 16.449219 16.453126 32.902344 32.90625 49.355469 49.359376 10.78125 10.78125 13.757812 27.160156 7.347656 40.996093-15.667968 33.828125-42.878906 61.042969-76.710937 76.710938-13.835938 6.40625-30.214844 3.433593-40.996094-7.351563zm0 0" fill="#6b7d8e"/><path d="m323.328125 10.695312c-10.78125-10.7812495-27.15625-13.753906-40.996094-7.347656-33.828125 15.667969-61.042969 42.882813-76.710937 76.710938-6.40625 13.835937-3.433594 30.214844 7.347656 40.996094 9.464844 9.464843 18.925781 18.925781 28.386719 28.386718 5.566406-14.359375 11.195312-31.683594 15.691406-51.554687 13.925781-61.566407 80.984375-72.488281 80.984375-72.488281-4.898438-4.898438-9.800781-9.800782-14.703125-14.703126zm0 0" fill="#546370"/><path d="m214.421875 280.96875-112.007813-112.003906c-11.265624-11.265625-11.265624-29.535156 0-40.800782l38.433594-38.433593c11.265625-11.265625 29.53125-11.265625 40.796875 0l112.007813 112.007812c11.265625 11.265625 11.265625 29.53125 0 40.796875l-38.433594 38.433594c-11.265625 11.265625-29.53125 11.265625-40.796875 0zm0 0" fill="#fad989"/><path d="m144.285156 170.03125 38.429688-38.429688c11.265625-11.269531 29.535156-11.269531 40.800781 0l-41.867187-41.871093c-11.265626-11.265625-29.535157-11.265625-40.800782 0l-38.433594 38.433593c-11.265624 11.265626-11.265624 29.53125 0 40.796876l41.871094 41.871093c-11.269531-11.265625-11.269531-29.53125 0-40.800781zm0 0" fill="#f6ca56"/><path d="m39.953125 343.429688c14.792969 14.789062 38.5625 15.4375 54.136719 1.480468l22.632812-20.285156-57.964844-57.964844-20.285156 22.632813c-13.957031 15.578125-13.308594 39.347656 1.480469 54.136719zm0 0" fill="#fd5c6f"/><g fill="#454545"><path d="m223.660156 228.792969c-3.019531-3.019531-3.019531-7.910157 0-10.929688l9.070313-9.070312c3.015625-3.015625 7.90625-3.015625 10.925781 0 3.015625 3.019531 3.015625 7.910156 0 10.929687l-9.070312 9.070313c-3.015626 3.015625-7.910157 3.015625-10.925782 0zm0 0"/><path d="m154.59375 159.722656c-3.019531-3.015625-3.019531-7.910156 0-10.925781l9.070312-9.070313c3.015626-3.015624 7.90625-3.015624 10.925782 0 3.015625 3.019532 3.015625 7.910157 0 10.925782l-9.070313 9.070312c-3.019531 3.019532-7.910156 3.019532-10.925781 0zm0 0"/><path d="m203.777344 187.066406c-3.019532.574219-5.019532-.992187-5.746094-1.714844-.722656-.726562-2.339844-2.734374-1.714844-5.746093.863282-4.179688-1.820312-8.269531-6-9.132813-4.179687-.867187-8.269531 1.820313-9.132812 5.996094-1.492188 7.203125.722656 14.605469 5.921875 19.808594 5.199219 5.199218 12.605469 7.414062 19.804687 5.921875 4.179688-.867188 6.863282-4.957031 6-9.132813-.316406-1.53125-2.832031-7.191406-9.132812-6zm0 0"/></g><path d="m283.910156 67.441406v-16.839844c0-6.671874 5.410156-12.078124 12.078125-12.078124h16.84375c6.667969 0 12.078125 5.40625 12.078125 12.078124v16.839844c0 6.671875-5.410156 12.078125-12.078125 12.078125h-16.84375c-6.667969 0-12.078125-5.40625-12.078125-12.078125zm0 0" fill="#3d4751"/><path d="m270.46875 140.230469v-16.84375c0-6.667969 5.40625-12.078125 12.078125-12.078125h16.839844c6.671875 0 12.078125 5.410156 12.078125 12.078125v16.84375c0 6.667969-5.40625 12.078125-12.078125 12.078125h-16.839844c-6.671875 0-12.078125-5.410156-12.078125-12.078125zm0 0" fill="#3d4751"/></svg>