<?xml version="1.0" encoding="iso-8859-1"?>
<!-- Generator: Adobe Illustrator 21.0.0, SVG Export Plug-In . SVG Version: 6.00 Build 0)  -->
<svg xmlns="http://www.w3.org/2000/svg" xmlns:xlink="http://www.w3.org/1999/xlink" version="1.1" id="Capa_1" x="0px" y="0px" viewBox="0 0 511.947 511.947" style="enable-background:new 0 0 511.947 511.947;" xml:space="preserve" width="512" height="512">
<g>
	<g>
		<g>
			<path style="fill:#606A70;" d="M15,511.947c-3.839,0-7.678-1.464-10.606-4.394c-5.858-5.858-5.858-15.355,0-21.213l36.26-36.26     c5.857-5.858,15.355-5.858,21.213,0c5.858,5.858,5.858,15.355,0,21.213l-36.26,36.26C22.678,510.482,18.839,511.947,15,511.947z"/>
		</g>
		<path style="fill:#414952;" d="M15,511.947c3.839,0,7.678-1.464,10.606-4.394l36.26-36.26c5.857-5.857,5.858-15.352,0.003-21.21    L4.393,507.553C7.322,510.482,11.161,511.947,15,511.947z"/>
		<g>
			<path style="fill:#AECEF2;" d="M79.121,487.24c-13.946,0-27.865-5.342-38.468-15.946c-20.512-20.511-21.338-53.432-1.883-74.947     l161.039-178.089l93.88,93.88L115.6,473.177C105.207,482.574,92.152,487.24,79.121,487.24z"/>
		</g>
		<path style="fill:#9EBBDB;" d="M79.121,487.24c13.031,0,26.086-4.666,36.479-14.063l178.089-161.039l-46.927-46.927    L40.655,471.295C51.259,481.898,65.176,487.24,79.121,487.24z"/>
		<polygon points="215.075,383.225 293.689,312.138 199.809,218.258 128.722,296.871   "/>
		<polygon style="fill:#FE5857;" points="215.075,383.225 293.689,312.138 199.809,218.258 128.722,296.871   "/>
		<polygon style="fill:#DB0253;" points="215.075,383.225 293.689,312.138 246.762,265.21 171.907,340.057   "/>
	</g>
	<g>
		<path style="fill:#FFD236;" d="M313.924,368.586c-3.839,0-7.678-1.464-10.606-4.394L147.754,208.629    c-5.858-5.858-5.858-15.355,0-21.213l92.882-92.883c2.813-2.813,6.628-4.393,10.607-4.393c3.978,0,7.793,1.58,10.606,4.393    l155.564,155.564c5.858,5.858,5.858,15.355,0,21.213l-92.882,92.882C321.602,367.121,317.763,368.586,313.924,368.586z"/>
		<path style="fill:#FF9300;" d="M303.318,364.192c2.929,2.929,6.767,4.394,10.606,4.394s7.678-1.464,10.607-4.394l92.882-92.882    c5.858-5.858,5.858-15.355,0-21.213l-77.764-77.764L225.548,286.422L303.318,364.192z"/>
	</g>
	<g>
		<g>
			<path style="fill:#49545C;" d="M401.375,236.535c-15.761,0-31.063-6.313-42.234-17.484l-66.246-66.246     c-11.605-11.605-17.968-27.669-17.456-44.074c0.512-16.404,7.864-32.04,20.171-42.899l51.411-45.362     c32.408-28.595,81.734-27.055,112.294,3.506l28.654,28.654c30.561,30.56,32.102,79.886,3.506,112.294l-45.362,51.411     c-10.859,12.307-26.495,19.659-42.899,20.171C402.601,236.526,401.987,236.535,401.375,236.535z"/>
		</g>
		<path style="fill:#18304A;" d="M359.141,219.051c11.171,11.171,26.473,17.484,42.234,17.484c0.612,0,1.226-0.009,1.84-0.028    c16.404-0.512,32.04-7.864,42.899-20.171l45.362-51.411c28.595-32.408,27.055-81.734-3.506-112.294l-14.302-14.303    L326.035,185.945L359.141,219.051z"/>
		<polygon style="fill:#18304A;" points="313.221,50.295 461.652,198.726 481.539,176.187 335.759,30.408   "/>
		<polygon style="fill:#071321;" points="461.652,198.726 481.539,176.187 408.67,103.319 387.456,124.531   "/>
	</g>
</g>















</svg>
