<svg height="512pt" viewBox="0 0 512 512" width="512pt" xmlns="http://www.w3.org/2000/svg"><path d="m512 241v226c0 25.007812-20.558594 45-45 45-24.902344 0-75-20.101562-75-45v-226zm0 0" fill="#a3a3d1"/><path d="m422 467v-467h-422v452c0 33 27 60 60 60h407c-24.902344 0-45-20.101562-45-45zm0 0" fill="#f2f2fc"/><path d="m467 512h-256v-512h211v467c0 24.898438 20.097656 45 45 45zm0 0" fill="#d8d8fc"/><path d="m45 211h151v30h-151zm0 0" fill="#d8d8fc"/><path d="m256 211h121v30h-121zm0 0" fill="#a3a3d1"/><path d="m45 271h151v30h-151zm0 0" fill="#d8d8fc"/><path d="m256 271h121v30h-121zm0 0" fill="#a3a3d1"/><path d="m45 331h151v30h-151zm0 0" fill="#d8d8fc"/><path d="m45 391h151v30h-151zm0 0" fill="#d8d8fc"/><path d="m377 421h-121v-90h121zm0 0" fill="#a3a3d1"/><path d="m45 60v121h332v-121zm0 0" fill="#ff641a"/><path d="m211 60h166v121h-166zm0 0" fill="#f03800"/></svg>