<svg height="472pt" viewBox="0 -15 472.00161 472" width="472pt" xmlns="http://www.w3.org/2000/svg"><path d="m464 7.851562v379.582032c0 25.6875-20.117188 46.71875-44.707031 46.71875h-361c13.476562 0 26.359375-5.542969 35.628906-15.332032 9.511719-10.050781 14.769531-23.390624 14.667969-37.226562v-373.742188zm-48.617188 199.878907v-166h-257.621093v166zm-134.109374 169.191406v-105.121094h-123.511719v105.121094zm0 0" fill="#00efd1"/><path d="m415.382812 41.730469v166h-257.621093v-166zm-86.910156 143.113281v-15.683594c.027344-20.097656-16.242187-36.414062-36.339844-36.449218-.039062-.007813-.082031-.007813-.121093 0h-12.5c-20.101563-.039063-36.421875 16.230468-36.449219 36.332031v15.800781zm-17.972656-95.960938v-.039062c-.007812-13.648438-11.070312-24.707031-24.71875-24.710938h-.039062c-13.652344.007813-24.71875 11.078126-24.71875 24.730469v.027344c.011718 13.65625 11.085937 24.714844 24.738281 24.710937h.019531c13.652344 0 24.71875-11.066406 24.71875-24.71875zm0 0" fill="#00acea"/><path d="m328.472656 169.160156v15.683594h-85.410156v-15.800781c.027344-20.101563 16.347656-36.371094 36.449219-36.332031h12.5c.039062-.007813.082031-.007813.121093 0 20.097657.035156 36.367188 16.351562 36.339844 36.449218zm0 0" fill="#fedb41"/><path d="m310.5 88.863281v.019531c0 13.652344-11.066406 24.71875-24.71875 24.71875h-.019531c-13.652344.003907-24.726563-11.054687-24.738281-24.710937v-.027344c0-13.652343 11.066406-24.722656 24.71875-24.730469h.039062c13.648438.003907 24.710938 11.0625 24.71875 24.710938zm0 0" fill="#fedb41"/><path d="m157.761719 271.800781h123.511719v105.121094h-123.511719zm0 0" fill="#fedb41"/><path d="m108.589844 229.183594v152.410156c.101562 13.835938-5.15625 27.175781-14.667969 37.226562-9.269531 9.789063-22.152344 15.332032-35.628906 15.332032-27.941407 0-50.292969-23.359375-50.292969-52.558594v-152.410156zm0 0" fill="#00acea"/><g fill="#083863"><path d="m464 0h-355.410156c-2.0625-.015625-4.042969.816406-5.476563 2.296875-1.4375 1.484375-2.199219 3.492187-2.113281 5.554687v213.148438h-93c-4.449219.085938-8.0117188 3.726562-8 8.183594v152.410156c-.113281 15.878906 5.941406 31.179688 16.886719 42.683594 10.769531 11.363281 25.75 17.777344 41.40625 17.722656h361c29.0625 0 52.707031-24.398438 52.707031-54.566406v-379.582032c-.003906-2.105468-.855469-4.121093-2.359375-5.597656-1.5-1.472656-3.53125-2.285156-5.640625-2.253906zm-405.707031 426.152344c-11.296875.007812-22.09375-4.648438-29.84375-12.859375-8.09375-8.558594-12.554688-19.921875-12.449219-31.699219v-144.59375h85v144.59375c.035156 11.800781-4.5 23.160156-12.65625 31.699219-7.832031 8.222656-18.695312 12.871093-30.050781 12.859375zm397.707031-38.71875c0 21.347656-16.464844 38.566406-36.707031 38.566406h-321.390625c.609375 0 1.414062-1.109375 2-1.722656 11.007812-11.480469 17.136718-26.78125 17.097656-42.683594v-365.59375h339zm0 0"/><path d="m157.761719 245h257.621093c4.417969 0 8-3.578125 8-8 0-4.417969-3.582031-8-8-8h-257.621093c-4.417969 0-8 3.582031-8 8 0 4.421875 3.582031 8 8 8zm0 0"/><path d="m415.382812 264h-89.972656c-4.417968 0-8 3.582031-8 8 0 4.421875 3.582032 8 8 8h89.972656c4.417969 0 8-3.578125 8-8 0-4.417969-3.582031-8-8-8zm0 0"/><path d="m415.382812 299h-89.972656c-4.417968 0-8 3.582031-8 8 0 4.421875 3.582032 8 8 8h89.972656c4.417969 0 8-3.578125 8-8 0-4.417969-3.582031-8-8-8zm0 0"/><path d="m415.382812 334h-89.972656c-4.417968 0-8 3.582031-8 8 0 4.421875 3.582032 8 8 8h89.972656c4.417969 0 8-3.578125 8-8 0-4.417969-3.582031-8-8-8zm0 0"/><path d="m282 264h-124c-4.417969 0-8 3.582031-8 8v105c0 4.421875 3.582031 8 8 8h124c4.417969 0 8-3.578125 8-8v-105c0-4.417969-3.582031-8-8-8zm-9 105h-107v-89h107zm0 0"/><path d="m415.382812 369h-89.972656c-4.417968 0-8 3.582031-8 8 0 4.421875 3.582032 8 8 8h89.972656c4.417969 0 8-3.578125 8-8 0-4.417969-3.582031-8-8-8zm0 0"/><path d="m292.191406 124.859375c-.226562-.011719-.214844.140625-.441406.140625h-12.3125c-11.738281-.0625-23.019531 4.542969-31.355469 12.804688-8.335937 8.261718-13.042969 19.5-13.082031 31.238281v15.800781c.015625 4.460938 3.601562 8.085938 8.0625 8.15625h85.410156c4.417969 0 7.527344-3.738281 7.527344-8.15625v-15.671875c1-24.382813-19.460938-44.125-43.808594-44.3125zm27.808594 52.140625h-69v-7.945312c.035156-7.5 3.058594-14.675782 8.398438-19.941407 5.339843-5.261719 12.558593-8.183593 20.054687-8.113281h12.667969c7.449218-.023438 14.597656 2.941406 19.84375 8.238281 5.242187 5.292969 8.136718 12.472657 8.035156 19.921875zm0 0"/><path d="m285.742188 122h.027343l-.007812-8.199219.019531 7.902344c18.03125-.109375 32.585938-14.765625 32.574219-32.792969-.011719-18.03125-14.585938-32.664062-32.613281-32.753906-8.679688-.03125-17.011719 3.417969-23.132813 9.574219-9.355469 9.421875-12.15625 23.53125-7.109375 35.8125 5.050781 12.28125 16.964844 20.34375 30.242188 20.457031zm-11.816407-44.96875c3.136719-3.15625 7.40625-4.921875 11.855469-4.898438 9.28125.101563 16.753906 7.652344 16.753906 16.933594s-7.472656 16.835938-16.753906 16.933594h-.039062c-6.804688-.117188-12.886719-4.28125-15.460938-10.585938-2.570312-6.304687-1.136719-13.535156 3.644531-18.382812zm0 0"/><path d="m158 216h258c4.417969 0 8-3.578125 8-8v-166c0-4.417969-3.582031-8-8-8h-258c-4.417969 0-8 3.582031-8 8v166c0 4.421875 3.582031 8 8 8zm8-166h241v150h-241zm0 0"/></g></svg>