<svg height="496pt" viewBox="0 0 496 496" width="496pt" xmlns="http://www.w3.org/2000/svg"><path d="m488 456v32h-480v-32zm0 0" fill="#cf9e76"/><g fill="#dfb28b"><path d="m464 424v32h-144v-32zm0 0"/><path d="m320 424v32h-144v-112h144zm0 0"/><path d="m176 424v32h-144v-32zm0 0"/></g><path d="m440 312v112h-40v-152h40zm0 0" fill="#838f9b"/><path d="m400 272v152h-40v-152zm0 0" fill="#838f9b"/><path d="m416 139.679688v20.320312l38.558594 11.039062c10.320312 2.960938 17.441406 12.320313 17.441406 23.039063v117.921875h-32v-40h-80v40h-32v-117.921875c0-10.71875 7.121094-20.078125 17.441406-23.039063l38.558594-11.039062v-20.320312c4.71875 2.71875 10.160156 4.320312 16 4.320312s11.28125-1.601562 16-4.320312zm0 0" fill="#69d6f4"/><path d="m96 272v152h-40v-152zm0 0" fill="#838f9b"/><path d="m136 312v112h-40v-152h40zm0 0" fill="#838f9b"/><path d="m136 272h-80v40h-32v-117.921875c0-10.71875 7.121094-20.078125 17.441406-23.039063l38.558594-11.039062v-20.320312c4.71875 2.71875 10.160156 4.320312 16 4.320312s11.28125-1.601562 16-4.320312v20.320312l38.558594 11.039062c10.320312 2.960938 17.441406 12.320313 17.441406 23.039063v117.921875h-32zm0 0" fill="#b4dd7f"/><path d="m248 192h48v152h-48zm0 0" fill="#838f9b"/><path d="m200 192h48v152h-48zm0 0" fill="#838f9b"/><path d="m273.519531 84.238281v-.078125l26.320313-10.480468c2.71875-1.121094 5.121094-2.960938 6.878906-5.28125l40.480469-54c3.039062-4 7.761719-6.398438 12.800781-6.398438 4.398438 0 8.398438 1.761719 11.28125 4.71875 2.957031 2.882812 4.71875 6.882812 4.71875 11.28125v2.640625c0 3.519531-1.121094 6.878906-3.199219 9.597656l-43.441406 57.921875c-.878906 1.199219-2 2.320313-3.199219 3.199219l-30.160156 22.640625v72h-96v-72l-30.160156-22.640625c-1.199219-.878906-2.320313-2-3.199219-3.199219l-43.441406-57.921875c-2.078125-2.71875-3.199219-6.078125-3.199219-9.597656v-2.640625c0-4.398438 1.761719-8.398438 4.71875-11.28125 2.882812-2.957031 6.882812-4.71875 11.28125-4.71875 5.039062 0 9.761719 2.398438 12.800781 6.398438l40.480469 54c1.757812 2.320312 4.160156 4.160156 6.878906 5.28125l26.320313 10.480468v.078125l9.519531 3.761719.800781-3.839844c4.480469 2.398438 9.679688 3.839844 15.199219 3.839844s10.71875-1.441406 15.199219-3.839844l1.441406 3.601563zm0 0" fill="#ff826e"/><path d="m264 144c0 8.835938-7.164062 16-16 16s-16-7.164062-16-16 7.164062-16 16-16 16 7.164062 16 16zm0 0" fill="#ffc729"/><path d="m432 96v16c0 11.839844-6.398438 22.160156-16 27.679688-4.71875 2.71875-10.160156 4.320312-16 4.320312s-11.28125-1.601562-16-4.320312c-9.601562-5.519532-16-15.839844-16-27.679688v-16c0-17.679688 14.320312-32 32-32 8.800781 0 16.800781 3.601562 22.640625 9.359375 5.757813 5.839844 9.359375 13.839844 9.359375 22.640625zm0 0" fill="#f0d0b4"/><path d="m280 40v16c0 12.160156-6.800781 22.71875-16.800781 28.160156-4.480469 2.398438-9.679688 3.839844-15.199219 3.839844s-10.71875-1.441406-15.199219-3.839844c-10-5.441406-16.800781-16-16.800781-28.160156v-16c0-17.679688 14.320312-32 32-32 8.800781 0 16.800781 3.601562 22.640625 9.359375 5.757813 5.839844 9.359375 13.839844 9.359375 22.640625zm0 0" fill="#f0d0b4"/><path d="m128 96v16c0 11.839844-6.398438 22.160156-16 27.679688-4.71875 2.71875-10.160156 4.320312-16 4.320312s-11.28125-1.601562-16-4.320312c-9.601562-5.519532-16-15.839844-16-27.679688v-16c0-17.679688 14.320312-32 32-32 8.800781 0 16.800781 3.601562 22.640625 9.359375 5.757813 5.839844 9.359375 13.839844 9.359375 22.640625zm0 0" fill="#f0d0b4"/><path d="m472 448v-32h-24v-216h-16v64h-64v-64h-16v216h-24v-80h-24v-212l26.992188-20.238281c1.824218-1.371094 3.433593-2.984375 4.777343-4.792969l43.429688-57.898438c3.089843-4.125 4.800781-9.238281 4.800781-14.40625v-2.664062c0-13.230469-10.769531-24-24-24-7.511719 0-14.695312 3.585938-19.191406 9.601562l-40.496094 54c-.886719 1.175782-2.082031 2.09375-3.441406 2.628907l-11.832032 4.738281c1.871094-4.632812 2.960938-9.671875 2.960938-14.96875v-16c0-22.054688-17.945312-40-40-40s-40 17.945312-40 40v16c0 5.296875 1.089844 10.335938 2.96875 14.96875l-11.839844-4.738281c-1.351562-.535157-2.535156-1.453125-3.425781-2.613281l-40.511719-54.015626c-4.496094-6.015624-11.679687-9.601562-19.191406-9.601562-13.230469 0-24 10.769531-24 24v2.664062c0 5.167969 1.710938 10.28125 4.808594 14.398438l43.4375 57.929688c1.363281 1.808593 2.960937 3.40625 4.792968 4.785156l26.960938 20.222656v212h-24v80h-24v-216h-16v64h-64v-64h-16v216h-24v32h-24v48h496v-48zm-40-32h-24v-136h24zm-64-136h24v136h-24zm88 152v16h-128v-16zm-200-96v-136h32v136zm-8-200c4.414062 0 8 3.585938 8 8s-3.585938 8-8 8-8-3.585938-8-8 3.585938-8 8-8zm2.480469-15.753906c-.824219-.078125-1.632813-.246094-2.480469-.246094s-1.65625.167969-2.480469.246094l-10.664062-26.644532c4.144531 1.453126 8.519531 2.398438 13.144531 2.398438s9-.945312 13.144531-2.398438zm-26.480469-80.246094c0-13.230469 10.769531-24 24-24s24 10.769531 24 24v16c0 13.230469-10.769531 24-24 24s-24-10.769531-24-24zm-49.351562 50.992188c-.617188-.472657-1.167969-1.023438-1.625-1.617188l-43.421876-57.910156c-1.035156-1.375-1.601562-3.082032-1.601562-4.800782v-2.664062c0-4.414062 3.585938-8 8-8 2.503906 0 4.894531 1.191406 6.398438 3.191406l40.511718 54.03125c2.65625 3.519532 6.210938 6.25 10.28125 7.867188l23.128906 9.246094 14.6875 36.71875c-4.328124 4.359374-7.007812 10.34375-7.007812 16.945312 0 13.230469 10.769531 24 24 24s24-10.769531 24-24c0-6.601562-2.679688-12.585938-7.007812-16.929688l14.6875-36.726562 23.121093-9.246094c4.078125-1.617187 7.632813-4.34375 10.296875-7.882812l40.503906-54.023438c1.503907-2 3.894532-3.191406 6.398438-3.191406 4.414062 0 8 3.585938 8 8v2.664062c0 1.71875-.566406 3.425782-1.601562 4.808594l-43.4375 57.902344c-.457032.609375-.992188 1.152344-1.585938 1.601562l-33.375 25.023438v68h-80v-68zm33.351562 109.007812h32v136h-32zm104 152v96h-128v-96zm-184 64h-24v-136h24zm-64-136h24v136h-24zm-24 152h128v16h-128zm440 48h-464v-16h464zm0 0"/><path d="m32 194.105469c0-7.113281 4.777344-13.433594 11.601562-15.386719l44.398438-12.6875v-14.839844c2.585938.527344 5.265625.808594 8 .808594s5.414062-.28125 8-.808594v14.839844l44.398438 12.6875c6.832031 1.953125 11.601562 8.273438 11.601562 15.386719v117.894531h16v-117.894531c0-14.210938-9.542969-26.867188-23.207031-30.777344l-32.792969-9.359375v-10.175781c9.65625-7.3125 16-18.785157 16-31.792969v-16c0-22.054688-17.945312-40-40-40s-40 17.945312-40 40v16c0 13.015625 6.34375 24.488281 16 31.792969v10.175781l-32.792969 9.359375c-13.664062 3.902344-23.207031 16.558594-23.207031 30.777344v117.894531h16zm40-98.105469c0-13.230469 10.769531-24 24-24s24 10.769531 24 24v16c0 13.230469-10.769531 24-24 24s-24-10.769531-24-24zm0 0"/><path d="m360 96v16c0 13.015625 6.34375 24.488281 16 31.792969v10.175781l-32.792969 9.359375c-13.664062 3.902344-23.207031 16.558594-23.207031 30.777344v117.894531h16v-117.894531c0-7.113281 4.777344-13.433594 11.601562-15.386719l44.398438-12.6875v-14.839844c2.585938.527344 5.265625.808594 8 .808594s5.414062-.28125 8-.808594v14.839844l44.398438 12.6875c6.832031 1.953125 11.601562 8.273438 11.601562 15.386719v117.894531h16v-117.894531c0-14.210938-9.542969-26.867188-23.207031-30.777344l-32.792969-9.359375v-10.175781c9.65625-7.3125 16-18.785157 16-31.792969v-16c0-22.054688-17.945312-40-40-40s-40 17.945312-40 40zm16 0c0-13.230469 10.769531-24 24-24s24 10.769531 24 24v16c0 13.230469-10.769531 24-24 24s-24-10.769531-24-24zm0 0"/></svg>