<svg width="400" height="400" xmlns="http://www.w3.org/2000/svg">
 <!-- Created with Method Draw - http://github.com/duopixel/Method-Draw/ -->

 <g>
  <title>background</title>
  <rect fill="none" id="canvas_background" height="402" width="402" y="-1" x="-1"/>
  <g display="none" overflow="visible" y="0" x="0" height="100%" width="100%" id="canvasGrid">
   <rect fill="url(#gridpattern)" stroke-width="0" y="0" x="0" height="100%" width="100%"/>
  </g>
 </g>
 <g>
  <title>Layer 1</title>
  <g stroke="null" id="svg_118">
   <path stroke="null" id="svg_100" fill="#87ced9" d="m311.230015,351.981251l-253.102389,0l0,-306.387102c0,-14.713133 11.929223,-26.642357 26.642357,-26.642357l279.744746,0c-14.713133,0 -26.642357,11.929223 -26.642357,26.642357l0,279.744746c0,14.713142 -11.929215,26.642357 -26.642357,26.642357zm0,0"/>
   <path stroke="null" id="svg_101" fill="#71c4d1" d="m64.788216,351.981251l246.4418,0c14.713142,0 26.642357,-11.929215 26.642357,-26.642357l0,-246.4418l-273.084156,273.084156zm0,0"/>
   <path stroke="null" id="svg_102" fill="#4ba5c4" d="m391.157086,58.915327l-53.284713,0l0,-13.321178c0,-14.713133 11.929223,-26.642357 26.642357,-26.642357s26.642357,11.929223 26.642357,26.642357l0,13.321178zm0,0"/>
   <path stroke="null" id="svg_103" fill="#a2e0e8" d="m4.842913,312.017716l0,13.321178c0,14.713142 11.929223,26.642357 26.642357,26.642357l279.744746,0c-14.713133,0 -26.642357,-11.929215 -26.642357,-26.642357l0,-13.321178l-279.744746,0zm0,0"/>
   <path stroke="null" id="svg_104" fill="#e3584b" d="m244.789989,292.035949l0,99.908838l26.642357,-19.981768l26.642357,19.981768l0,-99.908838l-53.284713,0zm0,0"/>
   <path stroke="null" id="svg_105" fill="#d64740" d="m244.789989,292.035949l0,16.332755c3.987245,2.982304 9.311162,3.473389 13.773241,1.271623c1.918824,5.418231 7.0411,9.037978 12.787807,9.037978c5.746715,0 10.868991,-3.619747 12.78456,-9.037978c4.530375,2.237542 9.938848,1.697668 13.939106,-1.385453l0,-16.218926l-53.284713,0zm0,0"/>
   <path stroke="null" id="svg_106" fill="#ffc24f" d="m302.211553,252.58627c2.468448,-5.19058 1.404968,-11.369834 -2.653829,-15.435133s-10.238058,-5.1418 -15.42863,-2.683102c-1.918824,-5.411729 -7.0411,-9.02822 -12.781304,-9.02822c-5.743459,0 -10.865736,3.616492 -12.78456,9.02822c-5.19058,-2.461945 -11.369834,-1.388708 -15.431886,2.679846c-4.058797,4.068554 -5.115774,10.251063 -2.644071,15.438388c-5.411729,1.931829 -9.024965,7.060616 -9.024965,12.807322s3.613236,10.875493 9.024965,12.807322c-2.471703,5.187325 -1.414726,11.369834 2.644071,15.438388c4.062052,4.068554 10.241305,5.141792 15.431886,2.679846c1.918824,5.411729 7.0411,9.02822 12.78456,9.02822c5.740204,0 10.86248,-3.616492 12.781304,-9.02822c5.190572,2.458698 11.369834,1.382205 15.42863,-2.683093s5.122276,-10.244561 2.653829,-15.435141c5.405226,-1.938331 9.01196,-7.063863 9.01196,-12.807322s-3.606734,-10.868991 -9.01196,-12.807322zm0,0"/>
   <path stroke="null" id="svg_107" fill="#ffba38" d="m302.211553,252.58627c2.139972,-4.380769 1.713928,-9.581099 -1.105766,-13.55534c-7.265504,26.68789 -26.961074,48.23398 -52.891189,57.860613c3.385586,1.226098 7.122409,1.017954 10.348632,-0.572394c1.918824,5.418231 7.0411,9.037978 12.787807,9.037978c5.746715,0 10.868991,-3.619747 12.78456,-9.037978c5.19058,2.461945 11.373089,1.388708 15.431886,-2.679846s5.119029,-10.251063 2.644071,-15.438388c5.405226,-1.938331 9.01196,-7.063863 9.01196,-12.807322s-3.606734,-10.868991 -9.01196,-12.807322zm0,0"/>
   <g stroke="null" transform="matrix(0.832573647672393,0,0,0.832573647672393,-2621.7323590710103,-1799.9540342950525) " id="svg_108" fill="#5eb3d1">
    <path stroke="null" id="svg_109" d="m3410.766358,2240.678683l32,0l0,16l-32,0l0,-16zm0,0"/>
    <path stroke="null" id="svg_110" d="m3330.766358,2240.678683l64,0l0,16l-64,0l0,-16zm0,0"/>
    <path stroke="null" id="svg_111" d="m3306.766358,2280.678683l160,0l0,16l-160,0l0,-16zm0,0"/>
    <path stroke="null" id="svg_112" d="m3266.766358,2328.678683l40,0l0,16l-40,0l0,-16zm0,0"/>
    <path stroke="null" id="svg_113" d="m3266.766358,2368.678683l88,0l0,16l-88,0l0,-16zm0,0"/>
    <path stroke="null" id="svg_114" d="m3322.766358,2328.678683l184,0l0,16l-184,0l0,-16zm0,0"/>
    <path stroke="null" id="svg_115" d="m3370.766358,2368.678683l136,0l0,16l-136,0l0,-16zm0,0"/>
    <path stroke="null" id="svg_116" d="m3266.766358,2408.678683l160,0l0,16l-160,0l0,-16zm0,0"/>
    <path stroke="null" id="svg_117" d="m3266.766358,2448.678683l136,0l0,16l-136,0l0,-16zm0,0"/>
   </g>
  </g>
  <g stroke="null" transform="rotate(-46.95482635498047 184.39428710937506,179.32901000976565) " id="svg_16">
   <path stroke="null" id="svg_4" fill="#ff9a9f" d="m177.450534,159.336591c-0.732482,0 -1.47809,-0.118243 -2.197429,-0.358026c-3.172972,-1.057655 -31.322406,-10.64554 -41.99752,-21.320653c-8.116363,-8.119651 -8.116363,-21.337075 0,-29.456726c8.119651,-8.116363 21.333796,-8.129506 29.466581,0c10.671826,10.671826 20.253144,38.81798 21.310798,41.994232c0.834303,2.496333 0.18394,5.24887 -1.675164,7.107983c-1.320435,1.320427 -3.097429,2.03319 -4.907267,2.03319zm-34.373848,-31.496492c4.013842,4.013842 13.345531,8.730602 22.384884,12.557216c-3.619685,-8.609062 -8.306879,-18.121404 -12.557216,-22.378308c-2.713117,-2.713126 -7.11455,-2.699983 -9.827668,0c-2.70655,2.70655 -2.70655,7.114542 0,9.821092zm0,0"/>
   <path stroke="null" id="svg_5" fill="#ff8086" d="m177.450534,159.336591c-1.809846,0 -3.58684,-0.709484 -4.910554,-2.036478c-1.859105,-1.855825 -2.509467,-4.61165 -1.675164,-7.104695c1.057655,-3.176252 10.638973,-31.322406 21.314078,-41.994232c8.129506,-8.129506 21.34693,-8.116363 29.463302,0c8.116363,8.119651 8.116363,21.337075 0,29.456726c-10.671826,10.675113 -38.821259,20.262999 -41.994232,21.320653c-0.719339,0.239782 -1.464955,0.358026 -2.197429,0.358026zm29.463293,-43.347503c-1.783561,0 -3.560555,0.67664 -4.917122,2.029919c-4.007267,4.010555 -8.727305,13.342235 -12.557207,22.381587c8.61235,-3.622964 18.124692,-8.30687 22.384875,-12.560495c2.70655,-2.70655 2.70655,-7.114542 0,-9.821092c-1.356559,-1.349992 -3.133552,-2.029919 -4.910546,-2.029919zm9.821101,16.761566l0.065689,0l-0.065689,0zm0,0"/>
   <path stroke="null" id="svg_6" fill="#f4dbb3" d="m184.394278,152.389567c-68.205721,0 -129.717327,-7.321488 -174.122493,-19.067391c-7.331335,-1.937936 -15.342589,-0.775173 -21.139992,4.115672c-11.814879,9.9689 -20.000227,31.572035 -20.000227,56.617482c0,25.042159 8.185348,46.648573 20.000227,56.617482c5.797403,4.890836 13.808657,6.053608 21.139992,4.115663c44.405166,-11.74919 105.916772,-19.07067 174.122493,-19.07067c71.559346,0 135.744658,8.060529 180.543981,20.831242l0,-124.990721c-44.799324,12.773992 -108.987915,20.831242 -180.543981,20.831242zm0,0"/>
   <path stroke="null" id="svg_7" fill="#eac89f" d="m188.65775,221.830316c-80.858182,0 -154.214232,6.651408 -208.785381,17.418487c2.696695,4.618218 5.849958,8.546653 9.262704,11.424009c5.794124,4.890836 13.808666,6.053608 21.136713,4.115663c44.405166,-11.74919 105.916772,-19.07067 174.122493,-19.07067c71.559346,0 135.744658,8.060529 180.543981,20.831242l0,-22.887429c-49.762424,-7.433156 -110.502137,-11.831301 -176.28051,-11.831301zm0,0"/>
   <path stroke="null" id="svg_8" fill="#ff8086" d="m163.563036,194.05533c0,-23.012248 12.557216,-41.705183 27.896517,-41.705183l-27.896517,-0.20365c-15.33931,0 -27.774986,18.896585 -27.774986,41.908833c0,23.00896 12.659037,41.889115 27.998346,41.889115l27.587758,-0.203642c-15.33931,0 -27.811118,-18.676512 -27.811118,-41.685473zm0,0"/>
   <path stroke="null" id="svg_9" fill="#e5646e" d="m163.563036,235.717805l27.811118,0.022998c-15.33931,0 -27.811118,-18.676512 -27.811118,-41.685473l-27.774986,0c0,23.00896 12.432397,41.662475 27.774986,41.662475zm0,0"/>
   <path stroke="null" id="svg_10" fill="#d2af8c" d="m399.65699,194.05533c0,-34.515089 -15.542952,-62.497005 -34.718731,-62.497005c-19.175779,0 -34.718731,27.981916 -34.718731,62.497005s15.542952,62.493717 34.718731,62.493717c19.175779,0 34.718731,-27.978636 34.718731,-62.493717zm0,0"/>
   <path stroke="null" id="svg_11" fill="#ff9a9f" d="m170.506789,194.05533c0,11.502832 -9.328401,20.831233 -20.831242,20.831233c-11.506128,0 -20.831242,-9.328401 -20.831242,-20.831233c0,-11.506128 9.325113,-20.831242 20.831242,-20.831242c11.502841,0 20.831242,9.325113 20.831242,20.831242zm0,0"/>
   <path stroke="null" id="svg_12" fill="#eac89f" d="m339.863256,211.414695c0,-15.579092 4.385002,-29.315485 11.052841,-37.428569c2.542311,-3.090853 0.607655,-7.705783 -3.396333,-7.705783l-13.693694,0c-2.31896,8.375847 -3.606542,17.78308 -3.606542,27.774986c0,34.51508 15.542952,62.493717 34.718731,62.493717c-13.851365,0 -25.075003,-20.207156 -25.075003,-45.134351zm0,0"/>
   <path stroke="null" id="svg_13" fill="#eac89f" d="m364.93826,131.558326c-9.804678,0 -18.66009,7.32148 -24.973182,19.083805c3.806904,-2.585019 7.932423,-4.036832 12.241881,-4.036832c19.175779,0 34.718731,27.978636 34.718731,62.493717c0,16.869954 -3.682086,32.189553 -9.715983,43.43291c13.135305,-8.914542 22.447284,-31.719852 22.447284,-58.476595c0,-34.515089 -15.54296,-62.497005 -34.718731,-62.497005zm0,0"/>
   <path stroke="null" id="svg_14" fill="#ff8086" d="m156.619292,207.942819c-11.50612,0 -20.831242,-9.328401 -20.831242,-20.831242c0,-3.967855 1.169339,-7.640086 3.094141,-10.793348c-5.997766,3.655808 -10.037885,10.198828 -10.037885,17.737101c0,11.502832 9.325113,20.831233 20.831242,20.831233c7.538265,0 14.078005,-4.040111 17.737101,-10.037885c-3.15655,1.92481 -6.825501,3.094141 -10.793356,3.094141zm0,0"/>
   <path stroke="null" id="svg_15" fill="#db4655" d="m170.697297,221.935425c-9.256137,0.114964 -18.397318,0.318606 -27.407106,0.601087c5.06493,8.096661 12.51122,13.407932 20.496205,13.407932l27.587758,-0.203642c-8.178772,0 -15.592227,-5.370401 -20.676858,-13.805378zm0,0"/>
  </g>
 </g>
</svg>