<svg viewBox="0 -16 512 512" xmlns="http://www.w3.org/2000/svg"><path d="m92 15h30v180h-30zm0 0" fill="#fdbf00"/><path d="m422 15v99.300781l-135 67.5-135-67.5v-99.300781zm0 0" fill="#20cee5"/><path d="m152 240h-90v-45c0-24.8125 20.1875-45 45-45s45 20.1875 45 45zm0 0" fill="#ffd400"/><path d="m512 360-159 120h-291l-30-90 30-81.902344c28.800781-32.699218 63.300781-44.097656 90-44.097656 24.902344 0 49.800781 8.699219 69.300781 26.101562 5.398438 3.898438 8.699219 9.597657 16.800781 9.898438h.296876 93.601562v60h-135v30h164.097656l69.003906-45.300781c27.597657-18.300781 63.597657-10.5 81.898438 15.300781zm0 0" fill="#ffcebf"/><path d="m62 480h-62v-180h62zm0 0" fill="#68544f"/><path d="m422 15v99.300781l-135 67.5v-166.800781zm0 0" fill="#19b9ce"/><path d="m62 0h420v30h-420zm0 0" fill="#76e2f8"/><path d="m287 0h195v30h-195zm0 0" fill="#20cee5"/><g fill="#ffbfab"><path d="m287 300h45v60h-45zm0 0"/><path d="m512 360-159 120h-66v-90h74.097656l69.003906-45.300781c27.597657-18.300781 63.597657-10.5 81.898438 15.300781zm0 0"/></g></svg>