<?xml version="1.0" encoding="iso-8859-1"?>
<!-- Generator: Adobe Illustrator 19.0.0, SVG Export Plug-In . SVG Version: 6.00 Build 0)  -->
<svg version="1.1" id="Capa_1" xmlns="http://www.w3.org/2000/svg" xmlns:xlink="http://www.w3.org/1999/xlink" x="0px" y="0px"
	 viewBox="0 0 512 512" style="enable-background:new 0 0 512 512;" xml:space="preserve">
<path style="fill:#FEDB41;" d="M467,0H45C20.098,0,0,20.099,0,45v60c0,24.901,20.098,45,45,45h16v45c0,6,3.6,11.4,9.302,13.801
	C75.7,211.2,82.299,210,86.5,205.5l55.8-55.499h74.399l25.803,51.599c2.699,5.101,8.101,7.8,13.499,7.8s10.8-2.699,13.499-7.8
	l25.802-51.6h74.399l55.8,55.499c4.2,4.501,10.8,5.7,16.198,3.301C447.4,206.4,451,201,451,195v-45h16c24.902,0,45-20.099,45-45V45
	C512,20.099,491.902,0,467,0z"/>
<path style="fill:#FCBF29;" d="M512,45v60c0,24.901-20.098,45-45,45h-16v45c0,6-3.6,11.4-9.302,13.801
	C436.3,211.2,429.701,210,425.5,205.5L369.701,150h-74.399l-25.803,51.599c-2.699,5.101-8.101,7.8-13.499,7.8V0h211
	C491.902,0,512,20.099,512,45z"/>
<path style="fill:#1689FC;" d="M180,497c0,8.291-6.709,15-15,15H15c-8.291,0-15-6.709-15-15v-46c0-49.629,40.371-90,90-90
	s90,40.371,90,90V497z"/>
<path style="fill:#18A7FC;" d="M90,391c-33.076,0-60-26.909-60-60s26.924-60,60-60s60,26.909,60,60S123.076,391,90,391z"/>
<path style="fill:#136EF1;" d="M512,497c0,8.291-6.709,15-15,15H347c-8.291,0-15-6.709-15-15v-46c0-49.629,40.371-90,90-90
	s90,40.371,90,90V497z"/>
<path style="fill:#1689FC;" d="M422,391c-33.076,0-60-26.909-60-60s26.924-60,60-60s60,26.909,60,60S455.076,391,422,391z"/>
<path style="fill:#FD003A;" d="M256,361c-57.898,0-105,47.1-105,105v46h210v-46C361,408.1,313.898,361,256,361z"/>
<path style="fill:#E61E14;" d="M361,466v46H256V361C313.898,361,361,408.1,361,466z"/>
<path style="fill:#FD3C65;" d="M256,241c-41.4,0-75,33.6-75,75s33.6,75,75,75s75-33.6,75-75S297.4,241,256,241z"/>
<path style="fill:#FD003A;" d="M331,316c0,41.4-33.6,75-75,75V241C297.4,241,331,274.6,331,316z"/>
<g>
</g>
<g>
</g>
<g>
</g>
<g>
</g>
<g>
</g>
<g>
</g>
<g>
</g>
<g>
</g>
<g>
</g>
<g>
</g>
<g>
</g>
<g>
</g>
<g>
</g>
<g>
</g>
<g>
</g>
</svg>
